<?xml version="1.0"?>
<svg xmlns="http://www.w3.org/2000/svg" viewBox="0 0 64 64" width="512" height="512"><g id="Dollar_coin" data-name="Dollar coin"><path d="M35,9H30v.025A25.9,25.9,0,0,1,47.708,17h6.029A25.917,25.917,0,0,0,35,9Z" style="fill:#ff9811"/><path d="M53.737,17H47.708a26.061,26.061,0,0,1,4.342,6h6.005A26.088,26.088,0,0,0,53.737,17Z" style="fill:#ee8700"/><path d="M58.055,23H52.05a25.756,25.756,0,0,1,2.243,6h6A25.908,25.908,0,0,0,58.055,23Z" style="fill:#ff9811"/><path d="M54.293,29A25.923,25.923,0,0,1,55,35h6a25.857,25.857,0,0,0-.709-6Z" style="fill:#ee8700"/><path d="M47.709,53h6.028a26.088,26.088,0,0,0,4.318-6H52.049A26.1,26.1,0,0,1,47.709,53Z" style="fill:#ff9811"/><path d="M29,61h6a25.917,25.917,0,0,0,18.737-8H47.709A25.891,25.891,0,0,1,29,61Z" style="fill:#ee8700"/><path d="M54.293,41a25.8,25.8,0,0,1-2.244,6h6.006a25.908,25.908,0,0,0,2.236-6Z" style="fill:#ee8700"/><path d="M61,35H55a25.923,25.923,0,0,1-.707,6h6A25.857,25.857,0,0,0,61,35Z" style="fill:#ff9811"/><path d="M55,35a26.034,26.034,0,1,1-.71-6A25.8,25.8,0,0,1,55,35Z" style="fill:#fbb040"/><circle cx="29" cy="35" r="22" style="fill:#f7941d"/><path d="M29,13c-.5,0-1,.023-1.5.057a21.994,21.994,0,0,1,0,43.886c.5.034,1,.057,1.5.057a22,22,0,0,0,0-44Z" style="fill:#de851a"/><path d="M34.28,35A7.98,7.98,0,0,0,29,33a4,4,0,1,1,3.769-5.343A1.93,1.93,0,0,0,34.563,29h.269a1.871,1.871,0,0,0,1.794-2.42A8.05,8.05,0,0,0,31,21.25V19a2,2,0,0,0-4,0v2.25A8,8,0,0,0,29,37a4,4,0,1,1-3.769,5.342A1.93,1.93,0,0,0,23.437,41h-.269a1.871,1.871,0,0,0-1.794,2.42A8.05,8.05,0,0,0,27,48.75V51a2,2,0,0,0,4,0V48.75A8,8,0,0,0,34.28,35Z" style="fill:#ff5023"/><path d="M32,51V49.488A9,9,0,0,0,29,32a3,3,0,1,1,2.827-4.007A2.914,2.914,0,0,0,34.563,30h.269a2.892,2.892,0,0,0,2.328-1.184,2.816,2.816,0,0,0,.419-2.54A9.11,9.11,0,0,0,32,20.513V19a3,3,0,0,0-6,0v1.512A9,9,0,0,0,29,38a3,3,0,1,1-2.827,4.007A2.914,2.914,0,0,0,23.437,40h-.269a2.892,2.892,0,0,0-2.328,1.184,2.816,2.816,0,0,0-.419,2.54A9.11,9.11,0,0,0,26,49.487V51a3,3,0,0,0,6,0Zm-4,0V48.75a1,1,0,0,0-.748-.968,7.081,7.081,0,0,1-4.925-4.664.837.837,0,0,1,.128-.754A.876.876,0,0,1,23.168,42h.269a.94.94,0,0,1,.852.678,5.037,5.037,0,0,0,5.876,3.19,4.945,4.945,0,0,0,3.7-3.7,5.032,5.032,0,0,0-.958-4.281A4.978,4.978,0,0,0,29,36a7,7,0,0,1-1.748-13.782A1,1,0,0,0,28,21.25V19a1,1,0,0,1,2,0v2.25a1,1,0,0,0,.748.968,7.081,7.081,0,0,1,4.925,4.664.837.837,0,0,1-.128.754.876.876,0,0,1-.713.364h-.269a.94.94,0,0,1-.852-.678,5.038,5.038,0,0,0-5.876-3.19,4.946,4.946,0,0,0-3.7,3.7,5.033,5.033,0,0,0,.958,4.281A4.978,4.978,0,0,0,29,34a7,7,0,0,1,1.748,13.782A1,1,0,0,0,30,48.75V51a1,1,0,0,1-2,0Z"/><path d="M35,8H29a27,27,0,0,0,0,54h6A27,27,0,0,0,35,8ZM59,28H55.074a26.719,26.719,0,0,0-1.426-4h3.795A24.82,24.82,0,0,1,59,28ZM55.074,42H59a24.82,24.82,0,0,1-1.552,4H53.648A26.719,26.719,0,0,0,55.074,42Zm.454-2a27,27,0,0,0,.447-4h4a24.942,24.942,0,0,1-.478,4Zm.447-6a27,27,0,0,0-.447-4H59.5a24.942,24.942,0,0,1,.478,4Zm.371-12H52.655a27.112,27.112,0,0,0-2.7-4h3.352A25.177,25.177,0,0,1,56.346,22Zm-5.125-6H48.162a27.119,27.119,0,0,0-7.486-5.342A24.932,24.932,0,0,1,51.221,16ZM4,35A25,25,0,1,1,29,60,25.028,25.028,0,0,1,4,35ZM48.162,54h3.059a24.932,24.932,0,0,1-10.545,5.342A27.119,27.119,0,0,0,48.162,54Zm5.146-2H49.956a27.112,27.112,0,0,0,2.7-4h3.691A25.177,25.177,0,0,1,53.308,52Z"/><path d="M52,35A23,23,0,1,0,29,58,23.026,23.026,0,0,0,52,35ZM8,35A21,21,0,1,1,29,56,21.023,21.023,0,0,1,8,35Z"/><path d="M17.479,22.772a1,1,0,0,0-1.414,0,18.021,18.021,0,0,0,0,25.456,1,1,0,0,0,1.414-1.414,16.02,16.02,0,0,1,0-22.628A1,1,0,0,0,17.479,22.772Z"/><path d="M40.106,48.228a1,1,0,0,0,1.415,0,18.021,18.021,0,0,0,0-25.456,1,1,0,0,0-1.415,1.414,16.018,16.018,0,0,1,0,22.628A1,1,0,0,0,40.106,48.228Z"/></g></svg>
